#N canvas 434 43 786 595 10;
#X obj 244 177 oscparse;
#X obj 279 446 print osc;
#X msg 595 178 connect 255.255.255.255 6666;
#X msg 350 60 listen 8888;
#X obj 350 102 netreceive -u -b;
#X obj 456 252 netsend -u -b;
#X obj 456 179 list prepend send;
#X obj 456 211 list trim;
#X obj 456 211 list trim;
#X obj 244 217 list trim;
#X msg 596 205 disconnect;
#X obj 88 322 spigot;
#X obj 121 299 tgl 15 0 empty empty All 17 7 0 10 -262144 -1 -1 0 1
;
#X obj 430 322 spigot;
#X obj 463 302 tgl 15 0 empty empty modular 17 7 0 10 -262144 -1 -1
1 1;
#X obj 179 322 spigot;
#X obj 212 302 tgl 15 0 empty empty dk 17 7 0 10 -262144 -1 -1 0 1
;
#X obj 235 322 spigot;
#X obj 268 302 tgl 15 0 empty empty cell 17 7 0 10 -262144 -1 -1 0
1;
#X obj 303 322 spigot;
#X obj 336 302 tgl 15 0 empty empty CyborgX 17 7 0 10 -262144 -1 -1
0 1;
#X obj 367 322 spigot;
#X obj 400 302 tgl 15 0 empty empty marble 17 7 0 10 -262144 -1 -1
0 1;
#X obj 350 24 loadbang;
#X obj 244 262 route dk cell CyborgX marble modular;
#X obj 513 322 spigot;
#X obj 546 302 tgl 15 0 empty empty Unmatched 17 7 0 10 -262144 -1
-1 0 1;
#X connect 0 0 9 0;
#X connect 0 0 11 0;
#X connect 2 0 5 0;
#X connect 3 0 4 0;
#X connect 4 0 0 0;
#X connect 4 0 6 0;
#X connect 6 0 7 0;
#X connect 7 0 5 0;
#X connect 9 0 24 0;
#X connect 10 0 5 0;
#X connect 11 0 1 0;
#X connect 12 0 11 1;
#X connect 13 0 1 0;
#X connect 14 0 13 1;
#X connect 15 0 1 0;
#X connect 16 0 15 1;
#X connect 17 0 1 0;
#X connect 18 0 17 1;
#X connect 19 0 1 0;
#X connect 20 0 19 1;
#X connect 21 0 1 0;
#X connect 22 0 21 1;
#X connect 23 0 3 0;
#X connect 24 0 15 0;
#X connect 24 1 17 0;
#X connect 24 2 19 0;
#X connect 24 3 21 0;
#X connect 24 4 13 0;
#X connect 24 5 25 0;
#X connect 25 0 1 0;
#X connect 26 0 25 1;
